<svg width="20" height="20" viewBox="0 0 20 20" fill="none" xmlns="http://www.w3.org/2000/svg">
<path d="M11.1092 1.38359C11.1092 1.81338 11.1092 2.14289 11.1092 2.54403C7.86728 2.54403 4.63904 2.54403 1.36976 2.54403C1.36976 7.90209 1.36976 13.1885 1.36976 18.5752C1.6023 18.5752 1.84852 18.5752 2.09474 18.5752C6.6772 18.5752 11.2597 18.5752 15.8421 18.5752C16.9501 18.5752 17.3058 18.2028 17.3058 17.028C17.3058 14.5066 17.3058 11.9708 17.3058 9.37771C17.6751 9.37771 18.0034 9.37771 18.3591 9.37771C18.3727 9.44934 18.4138 9.5353 18.4138 9.62126C18.4138 12.2287 18.4274 14.8217 18.4138 17.4291C18.4001 18.7758 17.4973 19.7357 16.2115 19.7357C11.1229 19.75 6.04797 19.7357 0.959389 19.75C0.398551 19.75 0.193366 19.4921 0.193366 18.9191C0.193366 13.3748 0.193366 7.80181 0.179688 2.24317C0.179688 1.72742 0.330156 1.38359 0.863637 1.38359C4.25602 1.38359 7.64841 1.38359 11.1092 1.38359Z" fill="white"/>
<path d="M19.1804 4.53574C18.8658 5.13745 18.688 5.76781 18.305 6.18328C15.8154 8.86231 13.2711 11.4984 10.7405 14.1344C10.6037 14.2777 10.4122 14.3923 10.2207 14.4496C8.64761 14.8937 7.06084 15.3378 5.47408 15.7676C4.7491 15.9682 4.4208 15.6387 4.61231 14.8651C5.009 13.2748 5.41937 11.6846 5.84341 10.1087C5.92549 9.80785 6.13067 9.507 6.34954 9.2921C8.78439 6.74201 11.2193 4.19191 13.6541 1.64182C14.8031 0.452728 16.0343 0.452728 17.1833 1.64182C17.58 2.04296 18.0177 2.40111 18.3323 2.85956C18.6606 3.34666 18.8795 3.91971 19.1804 4.53574ZM7.47121 9.93679C8.40138 10.9396 9.31788 11.9425 10.2207 12.931C12.2315 10.825 14.256 8.70472 16.2258 6.65605C15.2819 5.66753 14.3381 4.66468 13.4352 3.71914C11.4244 5.79647 9.39995 7.91677 7.47121 9.93679ZM14.3517 2.63034C15.3093 3.66184 16.2531 4.65036 17.1833 5.6532C18.0998 4.85093 18.1271 4.33518 17.2927 3.43261C17.0191 3.14609 16.7456 2.85956 16.472 2.57303C15.6102 1.6848 15.1314 1.69912 14.3517 2.63034ZM6.73255 11.2548C6.45897 12.3006 6.21275 13.3035 5.92549 14.4209C7.00613 14.1058 7.96366 13.8336 8.85279 13.5757C8.14148 12.8021 7.45753 12.0571 6.73255 11.2548Z" fill="white"/>
<path d="M10.4261 10.2667C10.2756 10.1234 10.0294 9.87986 9.85156 9.70795C11.0553 8.44722 12.2454 7.20083 13.4628 5.92578C13.6406 6.11202 13.8458 6.35557 13.9963 6.52749C12.8199 7.75956 11.6435 9.00595 10.4261 10.2667Z" fill="white"/>
</svg>
