<svg width="17" height="15" viewBox="0 0 17 15" fill="none" xmlns="http://www.w3.org/2000/svg">
<path d="M16.6105 6.94277L14.6795 5.38983V3.01511C14.6795 2.912 14.5951 2.82763 14.492 2.82763H13.8671C13.7639 2.82763 13.6796 2.912 13.6796 3.01511V4.58055L9.30823 1.05597C8.94265 0.759126 8.41771 0.759126 8.05213 1.05597L0.74987 6.94277C0.66863 7.00838 0.656131 7.12712 0.721748 7.20524L1.11545 7.69268C1.18107 7.77392 1.2998 7.78642 1.38105 7.7208L2.68089 6.67405V13.8294C2.68089 14.3825 3.12771 14.8293 3.68077 14.8293H7.30534C7.51157 14.8293 7.6803 14.6606 7.6803 14.4544V10.3267L9.68006 10.3361V14.4669C9.68006 14.6731 9.84879 14.8418 10.055 14.8418L13.6796 14.8325C14.2326 14.8325 14.6795 14.3856 14.6795 13.8326V6.67717L15.9793 7.72392C16.0606 7.78954 16.1793 7.77704 16.2449 7.6958L16.6386 7.20836C16.7042 7.12712 16.6886 7.00838 16.6105 6.94277ZM13.6796 13.8326L10.6799 13.8419V9.70806C10.6799 9.50184 10.5112 9.33311 10.305 9.33311L7.05537 9.32373C6.84915 9.32373 6.68042 9.49247 6.68042 9.69869V13.8326H3.68077V5.86789L8.56144 1.93086C8.63018 1.87462 8.72705 1.87462 8.79579 1.93086L13.6765 5.86789V13.8326H13.6796Z" fill="#0352C9"/>
</svg>
